<?xml version="1.0" standalone="no"?>
<!DOCTYPE svg PUBLIC "-//W3C//DTD SVG 20010904//EN"
 "http://www.w3.org/TR/2001/REC-SVG-20010904/DTD/svg10.dtd">
<svg version="1.0" xmlns="http://www.w3.org/2000/svg"
 width="300.000000pt" height="225.000000pt" viewBox="0 0 300.000000 225.000000"
 preserveAspectRatio="xMidYMid meet">
<metadata>
Created by potrace 1.10, written by Peter Selinger 2001-2011
</metadata>
<g transform="translate(0.000000,225.000000) scale(0.100000,-0.100000)"
fill="#000000" stroke="none">
<path d="M867 1604 c39 -17 49 -35 57 -99 4 -35 3 -42 -3 -25 -8 22 -9 21 -10
-15 -1 -50 -40 -134 -86 -188 -20 -23 -31 -43 -25 -45 16 -6 12 -18 -16 -51
-23 -28 -25 -37 -19 -77 6 -43 4 -49 -26 -80 -26 -27 -33 -43 -37 -87 -3 -37
1 -63 12 -85 22 -42 28 -40 20 6 -6 39 5 73 46 140 26 43 10 41 -29 -3 -45
-51 -38 -31 10 32 24 31 49 53 60 53 22 0 23 7 8 84 l-10 57 35 39 c45 50 64
88 77 153 21 110 -14 208 -73 206 -20 -1 -19 -2 9 -15z m-57 -464 c0 -11 -7
-20 -15 -20 -15 0 -21 21 -8 33 12 13 23 7 23 -13z"/>
<path d="M806 1578 c-44 -67 -60 -124 -64 -225 l-4 -103 -63 -44 c-120 -86
-166 -160 -173 -276 -5 -90 18 -150 76 -201 60 -53 167 -85 241 -73 l38 6 -10
43 c-10 42 -11 43 -58 47 -90 9 -149 77 -149 173 0 57 19 104 71 172 29 39 35
53 23 53 -39 0 -122 -134 -138 -223 -6 -30 -2 -46 15 -75 41 -68 80 -112 112
-126 85 -36 86 -37 34 -32 -26 2 -73 16 -105 32 -49 25 -61 37 -84 84 -24 48
-26 63 -21 115 3 33 14 80 24 104 25 58 24 62 -7 26 -14 -16 -20 -21 -12 -9
23 36 82 104 90 104 20 0 134 113 120 118 -6 2 -6 17 -2 38 10 45 16 51 25 25
11 -36 25 -23 25 22 0 49 24 140 47 175 17 28 12 46 -16 62 -17 8 -23 6 -35
-12z m-14 -169 c-21 -41 -21 -42 -28 -15 -8 32 22 84 38 68 8 -8 4 -24 -10
-53z"/>
<path d="M2086 1274 c-20 -20 -20 -38 0 -58 19 -19 26 -20 42 -4 18 18 14 56
-7 68 -15 7 -23 6 -35 -6z"/>
<path d="M2220 1260 c-12 -12 -20 -33 -20 -55 0 -28 -4 -35 -20 -35 -28 0 -27
-40 1 -47 19 -5 20 -12 18 -142 l-2 -136 35 -3 35 -3 -5 140 -5 140 34 3 c26
2 35 8 37 26 3 19 -1 22 -32 22 -29 0 -36 4 -36 19 0 29 18 36 41 15 10 -9 19
-13 20 -8 3 28 -5 70 -15 76 -21 14 -66 8 -86 -12z"/>
<path d="M1254 1263 c-19 -4 -22 -13 -28 -80 -3 -42 -6 -135 -6 -208 l0 -132
55 -6 c106 -11 165 26 165 103 0 51 -18 83 -62 110 l-30 18 29 15 c16 9 34 27
41 42 17 36 15 91 -3 109 -28 28 -101 41 -161 29z m109 -74 c22 -35 -24 -99
-73 -99 -11 0 -14 102 -3 114 12 12 66 2 76 -15z m-33 -164 c73 -38 63 -130
-14 -123 l-31 3 -3 68 c-3 73 0 77 48 52z"/>
<path d="M1925 1231 c-3 -12 -3 -30 0 -41 5 -16 2 -20 -19 -20 -21 0 -26 -5
-26 -25 0 -19 5 -25 23 -25 22 0 22 -2 19 -106 -4 -120 6 -157 47 -174 42 -17
77 1 84 42 6 41 3 45 -27 29 -40 -22 -46 -8 -46 105 l0 104 35 0 c31 0 35 3
35 25 0 22 -4 25 -36 25 -35 0 -36 1 -32 38 3 34 1 37 -24 40 -19 2 -28 -2
-33 -17z"/>
<path d="M575 1206 c-27 -13 -62 -37 -76 -52 -67 -75 -106 -218 -80 -297 12
-36 79 -132 87 -124 3 2 -8 28 -23 58 -24 47 -27 66 -27 139 0 72 4 93 26 135
29 54 83 111 138 144 48 28 17 26 -45 -3z"/>
<path d="M1505 1144 c-31 -33 -46 -105 -36 -174 13 -93 48 -135 112 -134 50 2
69 18 69 60 0 37 -10 43 -30 19 -18 -22 -56 -18 -80 7 -22 24 -30 72 -8 50 7
-7 27 -12 45 -12 44 0 68 37 68 106 0 42 -5 58 -24 78 -33 35 -83 35 -116 0z
m86 -61 c16 -41 -1 -78 -37 -78 -25 0 -29 4 -32 32 -6 66 47 102 69 46z"/>
<path d="M1702 1158 c-11 -11 -18 -88 -7 -88 3 0 14 9 26 21 27 27 73 23 77
-7 3 -18 -6 -25 -43 -40 -25 -9 -55 -28 -65 -42 -23 -28 -27 -96 -9 -136 22
-47 79 -40 102 12 l11 27 4 -33 c3 -30 6 -33 34 -30 l31 3 -2 105 c-2 127 -13
179 -42 203 -25 20 -99 23 -117 5z m96 -180 c3 -39 -27 -83 -51 -75 -20 6 -21
76 -1 98 27 30 48 20 52 -23z"/>
<path d="M2080 1005 l0 -165 30 0 30 0 0 128 c0 171 -6 202 -36 202 l-24 0 0
-165z"/>
<path d="M2356 1154 c-11 -28 -5 -228 7 -264 21 -62 95 -75 112 -20 11 34 27
23 20 -12 -13 -58 -24 -78 -50 -90 -22 -10 -30 -8 -55 10 l-29 22 -7 -35 c-9
-51 0 -65 43 -67 69 -2 88 3 118 33 l30 29 0 203 0 202 -32 3 -31 3 1 -113 c2
-114 -10 -164 -36 -155 -30 9 -38 51 -33 160 l6 107 -29 0 c-17 0 -31 -6 -35
-16z"/>
<path d="M885 1113 c6 -5 29 -15 52 -22 85 -24 143 -104 143 -197 1 -40 3 -46
11 -30 18 30 6 128 -20 164 -38 54 -84 82 -142 89 -35 3 -50 2 -44 -4z"/>
<path d="M865 1073 c74 -16 109 -41 136 -97 24 -51 24 -111 -1 -156 l-20 -35
7 40 c10 62 8 133 -6 159 -16 29 -80 66 -115 66 -26 0 -26 -1 -9 -19 10 -11
30 -22 46 -26 45 -12 67 -49 67 -114 0 -50 -4 -61 -30 -86 -26 -25 -29 -32
-23 -71 4 -30 2 -44 -6 -44 -7 0 -11 -19 -11 -50 0 -28 -7 -64 -15 -80 -21
-41 -105 -65 -105 -29 0 5 15 9 33 9 17 0 37 4 43 8 20 13 34 50 34 88 0 31
-2 35 -15 24 -8 -7 -15 -27 -15 -46 0 -30 -21 -64 -39 -64 -4 0 -12 5 -19 12
-10 10 -17 8 -33 -9 -45 -45 24 -89 94 -59 47 19 71 66 71 137 -1 51 2 58 28
75 73 47 107 174 70 255 -12 24 -27 51 -34 60 -25 31 -83 59 -118 58 -20 -1
-26 -3 -15 -6z"/>
<path d="M823 1007 c-18 -5 -33 -14 -33 -19 0 -24 43 -204 51 -213 13 -13 11
25 -2 64 -6 18 -9 35 -6 38 3 3 13 -20 22 -51 36 -123 55 -61 25 84 -12 58
-22 105 -23 106 -1 0 -17 -4 -34 -9z m23 -43 c-3 -9 -6 -23 -6 -32 0 -13 -4
-11 -16 6 -17 24 -11 42 13 42 10 0 13 -6 9 -16z"/>
</g>
</svg>
